<svg id="Layer_1" data-name="Layer 1" xmlns="http://www.w3.org/2000/svg" viewBox="0 0 549.78 344.36"><defs><style>.cls-1{font-size:114.05px;font-family:Roboto-Medium, Roboto Medium;font-weight:500;}.cls-1,.cls-5{fill:#1d62a7;}.cls-2{font-size:34.99px;fill:#565655;font-family:Roboto-Regular, Roboto;}.cls-3{letter-spacing:-0.01em;}.cls-4{letter-spacing:-0.01em;}.cls-6{fill:#efaf4e;}</style></defs><title>RecruitEx logo</title><text class="cls-1" transform="translate(32.36 207.53)">Recruit</text><text class="cls-2" transform="translate(35.67 264.47)">P<tspan class="cls-3" x="22.07" y="0">r</tspan><tspan x="33.57" y="0">oductivity . Quality . R</tspan><tspan class="cls-4" x="366.14" y="0">ev</tspan><tspan x="401.18" y="0">enue</tspan></text><path class="cls-5" d="M97,90.66v11c0,4-.19,6.12-2.25,9.65-1.19,2.06-3,4.2-8.21,8.12l-1-.33c3.73-4,4.54-6.59,5.07-8.55.71-2.49,1.14-8.41,1.14-19.11V88.18c0-1.82,0-9.89-.43-12.37-1.14-.2-4.92-.58-6.3-.67l-.19-1c1.14.1,6.78.19,9.41.19s6.64-.09,8.26-.19l-.14,1c-.82.09-3.44.47-5.11.67-.2,1.48-.24,11.27-.24,12.32Z"/><path class="cls-5" d="M124.19,107a38.53,38.53,0,0,0,4.83-.67c-.86-2.49-4.25-12.61-5-14-1.67,0-9.26.34-11,.62a111.49,111.49,0,0,0-3.34,13.38,28.76,28.76,0,0,0,4.1.67l.19,1c-1.48-.1-5.82-.19-7.21-.19-1.24,0-4.44.09-5.54.19l.15-1a37.7,37.7,0,0,0,4.1-.67c1.72-3,11.23-28.71,11.9-30.52a29.81,29.81,0,0,0-3.78-.62l0-1c1.43.1,5.39.19,6.2.19,2,0,6.79-.09,8.17-.19l-.14,1a26.39,26.39,0,0,0-3.63.62c.57,2.1,3.2,9.6,5,14.61a164.16,164.16,0,0,0,6.5,15.91c1.38.29,2.77.48,4.2.67l.15,1c-.58-.1-5.4-.19-7.93-.19-1.39,0-6.79.09-8.07.19ZM118.8,76.57h-.1c-1.48,4.25-4.58,12.51-5.06,14.09l10,.19C122.62,87.7,119.61,79.2,118.8,76.57Z"/><path class="cls-6" d="M140.34,112.58c.09-.67.76-6,.76-7.83,0-1.24.29-6.4.15-7.55l1.09.29a36.93,36.93,0,0,0,.34,4.2,8.16,8.16,0,0,0,7.4,5.21c3.78,0,6.78-2.48,6.78-6,0-3.87-3-5.78-6.11-7.78-4.68-3.06-8.41-5.74-8.41-11.13,0-3.73,2.77-8.41,9.84-8.41a26.83,26.83,0,0,1,6.45.86c.34-1.15.57-2.58.86-3.87l1.1-.14a96.36,96.36,0,0,0-1.15,13.09L158.35,83a30.24,30.24,0,0,0-.2-3.63,7,7,0,0,0-6.35-4.3c-4.11,0-5.83,2.63-5.83,4.78,0,3.1,3.25,4.77,6.88,7.06,4,2.49,8,5.16,8,11.18,0,6.64-5.26,10.41-11.75,10.41a17,17,0,0,1-6.59-1.19c-.24.91-.72,3.2-1.05,5Z"/><path class="cls-6" d="M83.17,86.5a22,22,0,0,0-42.24,8.2c1.38-1.08,3.43-2.31,4.48-1.08,1.69,2,0,6.11.91,4.56A7.7,7.7,0,0,1,48.46,96q0-.48,0-1a14.48,14.48,0,0,1,29,0q0,.51,0,1c.5,1,.9,1.73.88,1.22A3.37,3.37,0,0,1,81.53,94c1.59-.15,2.74,1.52,3.32,2.58,0-.5.05-1,.05-1.5A21.86,21.86,0,0,0,83.17,86.5Z"/><path class="cls-5" d="M84.23,98.75c-.53-.07-.53-.3-.23-.38s.46-.91.25-1.41c-.5-.44-.1-.26-.55-.94-2.13-2.2-4-.68-4.18-.08s-.3.38-.45.92a2.59,2.59,0,0,0,.45,2c.46.54.08.54.08.54s-3.95-3.57-4.25-4.1.15-1-.23-1.37a.92.92,0,0,0-1-.08s0-.14-.61-.07-.84.68-1.06,1a1.55,1.55,0,0,0-.16.91S70,98.15,70,98.3s-.23.15-.23-.08a2.84,2.84,0,0,0,.08-1.59,2.5,2.5,0,0,0-3.64-1,2.94,2.94,0,0,0-.69,2.66c.15.07.61.38-.07.38a.72.72,0,0,1-.76-.61,7.14,7.14,0,0,0,.83-2.66c-.07-.91-.68-1.74-2.27-2s-2.13,1.75-2.28,1.9a1,1,0,0,0,0,1.14,3.08,3.08,0,0,1,.38,1,.57.57,0,0,1-.08.83,4.6,4.6,0,0,0-1.89.38c-1.29,1.82-1.83,2-1.83,1.67a2.2,2.2,0,0,0-4.25-.23,1.16,1.16,0,0,0-.15.84c.08.23.46.23.08.76-1,.22-.91-1-.84-1.07.15-.45.08-.91-.07-1s.45-1.29,0-1.82c-3-2.74-4.78-.16-5,.3a2.15,2.15,0,0,0,.15,2.12c1,1.22.38,1,.38,1-2.51-.38-2.51-2.28-2.73-2.2s-.38-.23-.38-.23a2.54,2.54,0,0,0,1-2c0-1.91-.37-2.64-2-2.71s-2,2-2,2c-.23,0-.38.68-.23.84s.23.53.46.75A1.29,1.29,0,0,1,42,98.83c-.16.53-1,.54-1,.54,0,3.42,5.88,19.42,22.89,18.47s20.56-16.28,20.86-17.34S84.76,98.83,84.23,98.75Zm-23.76,6.61c-.15.22-.53-.23-.53-1.07s-.15-1-.76-1-.07-.61-.07-.61a1.66,1.66,0,0,0,.6-.84c.23-.6.61.61.76,1.29A3.55,3.55,0,0,1,60.47,105.36ZM76.32,101a2.71,2.71,0,0,0-.74,2.37c0,1.26.28,1.28.44,1.14a.1.1,0,0,1,.17.08c0,.24-.17.45-.65,0a.19.19,0,0,1-.05-.09c-.17-.65-.11-1.83-.41-2.79s-.72-1.63-1.63-1.78-1.55,1.4-1.78,1.4-1-.57-.72-.87l2.15-2.79a1.15,1.15,0,0,1,.91-.43,1,1,0,0,1,.81.49c.53.75,2.33,2.13,2.58,2.58A10.62,10.62,0,0,1,76.32,101Z"/><path class="cls-6" d="M484.72,158l12.76-24.56,7.36,3.53.12-23.24-20.13,13.6,6.82,3.35L479.7,150.39l-4-6H456.8l13.84,21-13.88,22.27c-4.87,5.22-12.1,10.9-24.93,10.95a17.61,17.61,0,0,1-13-5.13q-5.16-5.13-5.89-13.95h46.53V173q0-17-7.93-26.26t-22.48-9.27a30.5,30.5,0,0,0-16.58,4.67,31.26,31.26,0,0,0-11.55,13.06,42.73,42.73,0,0,0-4.11,19v2q0,15.93,9.44,25.5t24.65,9.58c5.92,0,16.07-1.47,20.94-3.58a28.41,28.41,0,0,0,14-12.07c3-4.85,10.49-21.63,10.49-21.63l22.11,33.51h18.93Zm-66.35-3.06a13.47,13.47,0,0,1,10.63-4.6q6.64,0,10.4,4.11t4.27,12.14v1.19H413.2Q414.33,159.54,418.37,154.94Z"/></svg>